<svg width="24" height="24" viewBox="0 0 24 24" fill="none" xmlns="http://www.w3.org/2000/svg">
<g opacity="0.48">
<path d="M13.9531 3V4.18555C13.9535 6.11735 16.0513 7.31914 17.7178 6.3418L18.6777 5.77734L20.6426 9.23438L19.6055 9.84375C17.9584 10.8095 17.9578 13.19 19.6045 14.1562L20.6426 14.7656L18.6787 18.2227L17.7178 17.6592C16.0512 16.6814 13.9532 17.8832 13.9531 19.8154V21H10.0469V19.8154C10.0468 17.8832 7.94881 16.6814 6.28223 17.6592L5.32031 18.2227L3.35547 14.7646L4.39453 14.1562C6.04093 13.1901 6.04109 10.8096 4.39453 9.84375L3.35645 9.23438L5.32129 5.77734L6.28223 6.3418C7.94869 7.31914 10.0465 6.11735 10.0469 4.18555V3H13.9531Z" stroke="white" stroke-width="2"/>
<path d="M15 12L12 15L9 12L12 9L15 12Z" fill="white"/>
</g>
</svg>
