<svg width="20" height="20" viewBox="0 0 20 20" fill="none" xmlns="http://www.w3.org/2000/svg">
<path fill-rule="evenodd" clip-rule="evenodd" d="M17 3V8.56641H11.4336V6.71094H13.957C13.2809 5.89713 12.3673 5.30847 11.3379 5.03125C10.1484 4.71098 8.88288 4.82807 7.77246 5.36133C6.66244 5.89458 5.78072 6.80831 5.28711 7.93652C4.79349 9.06497 4.72005 10.3335 5.08203 11.5107C5.44415 12.6881 6.21721 13.6974 7.25977 14.3535C8.30229 15.0095 9.54654 15.2698 10.7646 15.0869C11.9826 14.9039 13.0946 14.2887 13.8984 13.3555C14.7019 12.4224 15.144 11.2323 15.1445 10.001H17C16.9996 13.8665 13.8665 16.9996 10.001 17C6.13506 17 3.00044 13.8668 3 10.001C3 6.13479 6.13479 3 10.001 3L10.4072 3.01172C11.3535 3.06647 12.2805 3.31317 13.1309 3.73828C13.8905 4.11815 14.5716 4.63415 15.1445 5.25586V3H17ZM13.0176 3.96484L12.708 3.81934C12.7002 3.8159 12.6915 3.81298 12.6836 3.80957C12.796 3.85831 12.9076 3.90988 13.0176 3.96484Z" fill="white"/>
</svg>
