<svg preserveAspectRatio="none" width="100%" height="100%" overflow="visible" style="display: block;" viewBox="0 0 13 11" fill="none" xmlns="http://www.w3.org/2000/svg">
<path id="Vector (Stroke)" d="M2.56811 0.66C2.56811 0.295492 2.89147 0 3.29035 0C3.68909 0.000154727 4.0126 0.295588 4.0126 0.66V8.70977L5.33952 7.46023C5.61722 7.19872 6.07452 7.19279 6.36082 7.44648C6.647 7.70025 6.65443 8.11814 6.37681 8.37977L3.80852 10.7998C3.67258 10.9278 3.48556 10.9999 3.29035 11C3.09496 11 2.90727 10.9279 2.77124 10.7998L0.203903 8.37977C-0.0736678 8.11819 -0.0670756 7.70026 0.21895 7.44648C0.505195 7.19283 0.962531 7.19886 1.24024 7.46023L2.56811 8.71062V0.66ZM8.9874 10.34V2.28937L7.66048 3.53977C7.38278 3.80128 6.92548 3.80721 6.63918 3.55352C6.353 3.29975 6.34557 2.88186 6.62319 2.62023L9.19148 0.200234L9.24508 0.155547C9.37461 0.0558543 9.53876 6.77314e-05 9.70965 0C9.90504 0 10.0927 0.0720573 10.2288 0.200234L12.7961 2.62023C13.0737 2.88181 13.0671 3.29974 12.781 3.55352C12.4948 3.80717 12.0375 3.80114 11.7598 3.53977L10.4319 2.28852V10.34C10.4319 10.7045 10.1085 11 9.70965 11C9.31091 10.9998 8.9874 10.7044 8.9874 10.34Z" fill="var(--fill-0, white)" fill-opacity="0.5"/>
</svg>
